# xmcd CD database file
#
# Track frame offsets:
#	182
#	17257
#	31490
#	46147
#	61750
#	75550
#	92477
#	106932
#	125225
#	143032
#	156315
#	169475
#
# Disc length: 2448 seconds
#
# Revision: 8
# Processed by: cddbd v1.5.2PL0 Copyright (c) Steve Scherf et al.
# Submitted via: ACXtractor (MTCDDB.DLL V2003.12.21)
#
DISCID=92098e0c
DTITLE=Ricchi e Poveri - I Grandi Successi Originali - CD1
DYEAR=2000
DGENRE=Pop
TTITLE0=La prima cosa bella
TTITLE1=Primo sole, primo fiore
TTITLE2=M'innamoro di te
TTITLE3=Dimmi quando
TTITLE4=Sarà perchè ti amo
TTITLE5=Voulez Vous Danser
TTITLE6=Cocco bello africa
TTITLE7=Canzone d'amore
TTITLE8=Hasta la vista
TTITLE9=Come vorrei
TTITLE10=Mamma Maria
TTITLE11=E penso a te
EXTD=YEAR: 2000 ID3G:  13
EXTT0=
EXTT1=
EXTT2=
EXTT3=
EXTT4=
EXTT5=
EXTT6=
EXTT7=
EXTT8=
EXTT9=
EXTT10=
EXTT11=
PLAYORDER=
